<?xml version="1.0" encoding="UTF-8"?>
<!-- Generated by Pixelmator Pro 4.0 -->
<svg width="725" height="186" viewBox="0 0 725 186" xmlns="http://www.w3.org/2000/svg">
    <g id="Group">
        <clipPath id="clipPath1">
            <path d="M -10.666687 -83.333313 L 726.666626 -83.333313 L 726.666626 262 L -10.666687 262 Z"/>
        </clipPath>
        <g id="g1" clip-path="url(#clipPath1)">
            <g id="g2">
                <g id="g3">
                    <g id="g4">
                        <path id="Path" fill="#ff0007" stroke="none" d="M 82.174438 0.475098 L 127.320251 0.475098 L 101.257751 185.683441 L 42.716125 185.683441 L 58.174438 75.808472 L 0.403625 75.808472 L 6.591125 31.183472 L 31.091125 30.662598 C 46.908813 30.318848 58.559875 27.610535 66.049438 22.537598 C 73.533813 17.46991 78.908813 10.115723 82.174438 0.475098 Z M 82.174438 0.475098"/>
                    </g>
                </g>
            </g>
            <g id="g5">
                <g id="g6">
                    <g id="g7">
                        <path id="path1" fill="#ff0007" stroke="none" d="M 275.366272 185.683441 L 228.407959 185.683441 L 196.178772 62.641785 L 178.887146 185.683441 L 121.887146 185.683441 L 147.949646 0.475098 L 232.803772 0.475098 L 260.928772 113.725098 L 321.012146 0.475098 L 407.949646 0.475098 L 381.887146 185.683441 L 324.887146 185.683441 L 342.178772 62.641785 Z M 275.366272 185.683441"/>
                    </g>
                </g>
            </g>
            <g id="g8">
                <g id="g9">
                    <g id="g10">
                        <path id="path2" fill="#ff0007" stroke="none" d="M 542.326782 0.475098 L 596.743408 0.475098 L 608.347656 108.808472 L 664.055908 0.475098 L 724.160156 0.475098 L 629.764282 185.683441 L 568.639282 185.683441 L 556.514282 77.350098 L 503.368408 185.683441 L 442.493408 185.683441 L 415.680908 0.475098 L 474.993408 0.475098 L 489.951782 108.808472 Z M 542.326782 0.475098"/>
                    </g>
                </g>
            </g>
        </g>
    </g>
</svg>
