<?xml version="1.0" encoding="UTF-8"?>
<!-- Generated by Pixelmator Pro 4.0 -->
<svg width="1141" height="273" viewBox="0 0 1141 273" xmlns="http://www.w3.org/2000/svg">
    <g id="Group">
        <clipPath id="clipPath1">
            <path d="M -6.666672 -83.666687 L 580 -83.666687 L 580 373.666656 L -6.666672 373.666656 Z"/>
        </clipPath>
        <g id="g1" clip-path="url(#clipPath1)">
            <g id="g2">
                <g id="g3">
                    <g id="g4">
                        <path id="Path" fill="#ff0007" stroke="none" d="M 48.344528 64.525635 C 43.787231 68.874573 38.037231 72.395447 31.094528 75.088135 C 24.162231 77.770447 17.802856 79.108948 12.0112 79.108948 L 21.6362 36.567322 C 31.162231 35.124573 41.099731 31.504822 51.4487 25.713135 C 61.79245 19.911072 69.974731 12.348572 75.990356 3.025635 L 118.844543 3.025635 L 57.344528 270.108978 L 0.8237 270.108978 Z M 48.344528 64.525635"/>
                    </g>
                </g>
            </g>
            <g id="g5">
                <g id="g6">
                    <g id="g7">
                        <path id="path1" fill="#ff0007" stroke="none" d="M 79.093506 270.108978 L 140.572693 3.338135 L 221.947693 3.338135 L 206.718506 166.067322 L 266.656006 3.338135 L 348.656006 3.338135 L 287.156006 270.108978 L 238.406006 270.108978 L 282.822693 77.879822 L 207.656006 270.108978 L 159.822693 270.108978 L 171.635193 77.879822 L 127.218506 270.108978 Z M 79.093506 270.108978"/>
                    </g>
                </g>
            </g>
            <g id="g8">
                <g id="g9">
                    <g id="g10">
                        <path id="path2" fill="#ff0007" stroke="none" d="M 331.239807 270.108978 L 364.177307 3.338135 L 416.343933 3.338135 L 392.427307 171.650635 L 446.156433 3.338135 L 495.843933 3.338135 L 471.302307 171.650635 L 524.427307 3.338135 L 577.218933 3.338135 L 486.531433 270.108978 L 422.552307 270.108978 L 438.69812 141.546448 L 396.468933 270.108978 Z M 331.239807 270.108978"/>
                    </g>
                </g>
            </g>
        </g>
    </g>
    <g id="g11">
        <clipPath id="clipPath2">
            <path d="M 502.666687 -83.666687 L 577.333313 -83.666687 L 577.333313 373.666656 L 502.666687 373.666656 Z"/>
        </clipPath>
        <g id="g12" clip-path="url(#clipPath2)">
            <g id="g13">
                <g id="g14">
                    <g id="g15">
                        <path id="path3" fill="#ff0007" stroke="none" d="M 506.692017 270.108978 L 517.254517 224.775635 L 571.608704 224.775635 L 561.046204 270.108978 Z M 506.692017 270.108978"/>
                    </g>
                </g>
            </g>
        </g>
    </g>
    <g id="g16">
        <clipPath id="clipPath3">
            <path d="M 576 -83.666687 L 1145.333374 -83.666687 L 1145.333374 373.666656 L 576 373.666656 Z"/>
        </clipPath>
        <g id="g17" clip-path="url(#clipPath3)">
            <g id="g18">
                <g id="g19">
                    <g id="g20">
                        <path id="path4" fill="#ff0007" stroke="none" d="M 634.43689 272.588135 C 614.978516 272.588135 600.796265 266.483978 591.895203 254.275635 C 582.994141 242.056885 581.03064 225.286072 585.99939 203.963135 L 614.24939 80.983948 C 620.46814 54.483948 630.40564 34.504822 644.06189 21.046448 C 657.728516 7.588135 675.84314 0.858948 698.416016 0.858948 C 718.082703 0.858948 732.676453 6.244385 742.207703 17.004822 C 751.733765 27.770447 754.113953 43.296448 749.353516 63.588135 L 738.791016 109.546448 L 685.68689 109.546448 L 694.99939 70.108948 C 696.650391 62.442322 696.90564 57.16626 695.770203 54.275635 C 694.629578 51.374573 691.78064 49.921448 687.228516 49.921448 C 682.478516 49.921448 678.801453 51.582947 676.207703 54.900635 C 673.62439 58.207947 671.608765 63.067322 670.166016 69.483948 L 639.103516 203.338135 C 637.65564 210.379822 637.551453 215.504822 638.791016 218.713135 C 640.025391 221.921448 642.71814 223.525635 646.87439 223.525635 C 655.150391 223.525635 660.837891 216.796448 663.93689 203.338135 L 675.12439 155.192322 L 728.853516 155.192322 L 717.353516 205.504822 C 707.004578 250.22876 679.363953 272.588135 634.43689 272.588135 Z M 634.43689 272.588135"/>
                    </g>
                </g>
            </g>
            <g id="g21">
                <g id="g22">
                    <g id="g23">
                        <path id="path5" fill="#ff0007" stroke="none" d="M 783.198059 272.588135 C 761.656372 272.588135 746.802246 266.020447 738.635559 252.879822 C 730.458496 239.72876 729.156372 221.249573 734.739746 197.442322 L 763.948059 70.421448 C 769.323059 47.437073 778.948059 30.098572 792.823059 18.400635 C 806.698059 6.707947 824.395996 0.858948 845.927246 0.858948 C 867.453247 0.858948 882.458496 6.707947 890.94812 18.400635 C 899.44812 30.098572 901.000122 47.437073 895.614746 70.421448 L 866.427246 197.442322 C 860.828247 221.457947 850.937622 239.983948 836.760559 253.025635 C 822.578247 266.067322 804.724121 272.588135 783.198059 272.588135 Z M 794.364746 223.525635 C 799.125122 223.525635 802.854309 221.457947 805.552246 217.317322 C 808.244934 213.181885 810.416809 207.379822 812.073059 199.921448 L 842.198059 69.483948 C 843.448059 63.692322 843.760559 58.983948 843.135559 55.358948 C 842.510559 51.733948 839.812622 49.921448 835.052246 49.921448 C 826.145996 49.921448 820.145996 56.650635 817.052246 70.108948 L 786.927246 200.233948 C 785.062622 207.890198 784.599121 213.687073 785.531372 217.629822 C 786.458496 221.562073 789.406372 223.525635 794.364746 223.525635 Z M 794.364746 223.525635"/>
                    </g>
                </g>
            </g>
            <g id="g24">
                <g id="g25">
                    <g id="g26">
                        <path id="path6" fill="#ff0007" stroke="none" d="M 871.081665 270.108978 L 932.560791 3.338135 L 1013.935791 3.338135 L 998.706665 166.067322 L 1058.644165 3.338135 L 1140.644165 3.338135 L 1079.144165 270.108978 L 1030.394165 270.108978 L 1074.810791 77.879822 L 999.644165 270.108978 L 951.810791 270.108978 L 963.623291 77.879822 L 919.206665 270.108978 Z M 871.081665 270.108978"/>
                    </g>
                </g>
            </g>
        </g>
    </g>
</svg>
